<svg width="43" height="43" viewBox="0 0 43 43" fill="none" xmlns="http://www.w3.org/2000/svg">
<path d="M21.5 18.2969C19.7338 18.2969 18.2969 19.7338 18.2969 21.5C18.2969 23.2662 19.7338 24.7031 21.5 24.7031C23.2662 24.7031 24.7031 23.2662 24.7031 21.5C24.7031 19.7338 23.2662 18.2969 21.5 18.2969ZM21.5 23.1016C20.6169 23.1016 19.8984 22.3831 19.8984 21.5C19.8984 20.6169 20.6169 19.8984 21.5 19.8984C22.3831 19.8984 23.1016 20.6169 23.1016 21.5C23.1016 22.3831 22.3831 23.1016 21.5 23.1016Z" fill="#5A67D8"/>
<path d="M37.7559 26.3046C38.1981 26.3046 38.5566 25.9461 38.5566 25.5038C38.5566 25.0615 38.1981 24.703 37.7559 24.703C37.3136 24.703 36.9551 25.0615 36.9551 25.5038C36.9551 25.9461 37.3136 26.3046 37.7559 26.3046Z" fill="#5A67D8"/>
<path d="M33.0812 14.8712C34.7535 9.11167 34.3679 5.05484 31.9902 3.68182C31.0729 3.15226 29.4316 2.80264 26.8215 4.14435C25.1694 4.99366 23.3412 6.4128 21.5005 8.26797C18.9623 5.69442 16.5242 4.00365 14.5169 3.42196C14.1677 2.02388 12.9038 1 11.4102 1C9.64395 1 8.20703 2.43692 8.20703 4.20312C8.20703 5.02497 8.52662 5.81109 9.08148 6.39991C8.41587 8.83412 9.07444 12.1864 9.8773 14.8819C4.22194 16.368 1 18.7588 1 21.5C1 24.2412 4.22194 26.632 9.8773 28.1181C9.07444 30.8137 8.41587 34.166 9.08148 36.6001C8.52662 37.189 8.20703 37.975 8.20703 38.7969C8.20703 40.5631 9.64395 42 11.4102 42C12.9039 42 14.1677 40.976 14.5169 39.578C16.5238 38.9963 18.9617 37.3058 21.5 34.7324C24.0383 37.3057 26.4762 38.9963 28.4831 39.578C28.8323 40.976 30.0961 42 31.5898 42C33.356 42 34.793 40.5631 34.793 38.7969C34.793 37.9746 34.4731 37.1883 33.9185 36.5999C34.5841 34.1656 33.9254 30.813 33.1225 28.1175C33.6602 27.9757 34.1815 27.8241 34.6793 27.6643C35.1004 27.5292 35.3321 27.0782 35.1969 26.657C35.0616 26.2359 34.6107 26.0043 34.1896 26.1394C33.6936 26.2988 33.1719 26.4495 32.6326 26.5902C32.0674 24.9418 31.3644 23.2318 30.537 21.4925C31.3545 19.7623 32.0474 18.0546 32.6025 16.4019C37.3636 17.6404 40.3984 19.6101 40.3984 21.5C40.3984 21.9298 40.2408 22.3704 39.9298 22.8096C39.6742 23.1705 39.7597 23.6703 40.1206 23.9258C40.4815 24.1814 40.9813 24.0959 41.2369 23.735C41.7433 23.0199 42 22.268 42 21.5C42 18.7508 38.7628 16.3559 33.0812 14.8712ZM27.5537 5.56878C28.6402 5.01023 30.1527 4.47027 31.1894 5.06885C32.8138 6.0068 32.9296 9.67222 31.5209 14.5005C29.7866 14.1269 27.9328 13.8551 25.9966 13.6874C24.9163 12.1578 23.7772 10.7306 22.6008 9.43271C24.3354 7.67828 26.0377 6.3481 27.5537 5.56878ZM21.5 32.3965C20.6746 31.4797 19.867 30.4951 19.0852 29.4521C19.8845 29.4888 20.6918 29.5078 21.5 29.5078C22.3082 29.5078 23.1156 29.4888 23.9148 29.4521C23.133 30.4952 22.3254 31.4798 21.5 32.3965ZM21.497 10.601C22.3244 11.5197 23.1331 12.5051 23.9148 13.5481C22.3191 13.4752 20.69 13.475 19.0791 13.5487C19.8632 12.5006 20.6719 11.5149 21.497 10.601ZM17.8874 27.7776C17.2035 26.7767 16.5533 25.7443 15.9523 24.7032C15.3429 23.6475 14.7678 22.5716 14.2391 21.5C14.7678 20.4284 15.3429 19.3526 15.9523 18.2969C16.5605 17.2434 17.2095 16.2112 17.8842 15.2226C20.2803 15.0519 22.7526 15.053 25.1127 15.2224C25.7966 16.2233 26.4468 17.2557 27.0479 18.297C27.6543 19.3473 28.2286 20.4215 28.7584 21.495C28.2328 22.5677 27.6586 23.6452 27.0479 24.7033C26.4469 25.7444 25.7967 26.7769 25.1128 27.7778C22.7446 27.9475 20.2565 27.9476 17.8874 27.7776ZM14.5652 17.4962C14.1521 18.2117 13.7546 18.9365 13.3754 19.6631C12.826 18.4324 12.3442 17.2209 11.9344 16.041C13.177 15.7775 14.482 15.5666 15.8376 15.4116C15.3987 16.0932 14.9729 16.79 14.5652 17.4962ZM13.3755 23.3369C13.7546 24.0636 14.1522 24.7883 14.5652 25.5038C14.9698 26.2047 15.3962 26.9016 15.8394 27.5883C14.4832 27.4332 13.1775 27.2224 11.9345 26.9589C12.3442 25.7791 12.826 24.5676 13.3755 23.3369ZM28.4348 25.5038C28.8484 24.7874 29.2456 24.0619 29.6233 23.335C30.1738 24.568 30.656 25.7801 31.0655 26.9589C29.8227 27.2223 28.5171 27.4332 27.1607 27.5883C27.6038 26.9016 28.0303 26.2047 28.4348 25.5038ZM28.4348 17.4962C28.0303 16.7953 27.6039 16.0985 27.1607 15.4117C28.5068 15.5657 29.8024 15.7746 31.0358 16.035C30.6345 17.2147 30.1605 18.4242 29.6182 19.6512C29.2402 18.9269 28.8448 18.2061 28.4348 17.4962ZM20.3968 9.42982C19.224 10.7197 18.0844 12.148 16.9996 13.6873C15.0506 13.8561 13.1841 14.1309 11.4376 14.5091C10.5441 11.5294 10.2265 8.98435 10.526 7.28237C10.8107 7.36405 11.1074 7.40625 11.4102 7.40625C12.8665 7.40625 14.0981 6.4289 14.4857 5.096C16.1533 5.71044 18.2382 7.23536 20.3968 9.42982ZM11.4102 2.60156C12.2951 2.60156 13.0117 3.31746 13.0117 4.20312C13.0117 5.08623 12.2933 5.80469 11.4102 5.80469C10.5232 5.80469 9.80859 5.08046 9.80859 4.20312C9.80859 3.32002 10.5271 2.60156 11.4102 2.60156ZM2.60156 21.5C2.60156 19.6155 5.62459 17.6486 10.3672 16.4096C10.9327 18.059 11.6344 19.7665 12.4592 21.5C11.6344 23.2335 10.9327 24.9412 10.3672 26.5905C5.62459 25.3514 2.60156 23.3845 2.60156 21.5ZM11.4102 40.3984C10.5271 40.3984 9.80859 39.68 9.80859 38.7969C9.80859 37.9204 10.5223 37.1953 11.4102 37.1953C12.3546 37.1953 13.0733 38.0176 13.01 38.8682C13.0096 38.8737 13.0092 38.8794 13.0089 38.885C12.9638 39.7335 12.2615 40.3984 11.4102 40.3984ZM14.4857 37.904C14.0981 36.571 12.8665 35.5938 11.4102 35.5938C11.1074 35.5938 10.8107 35.636 10.526 35.7176C10.2266 34.0157 10.5441 31.4707 11.4376 28.4908C13.1852 28.8691 15.0531 29.144 17.0034 29.3127C18.0855 30.8444 19.2247 32.2716 20.3993 33.5676C18.2395 35.7634 16.1537 37.2893 14.4857 37.904ZM22.6007 33.5676C23.7753 32.2717 24.9145 30.8445 25.9966 29.3127C27.9473 29.144 29.815 28.8691 31.5624 28.4908C32.4559 31.4705 32.7735 34.0156 32.4741 35.7176C32.1893 35.6359 31.8926 35.5938 31.5898 35.5938C30.1335 35.5938 28.9019 36.571 28.5143 37.904C26.8463 37.2892 24.7604 35.7634 22.6007 33.5676ZM31.5898 40.3984C30.7385 40.3984 30.0362 39.7335 29.9912 38.885C29.9909 38.8794 29.9905 38.8737 29.9901 38.8682C29.927 38.0215 30.6403 37.1953 31.5898 37.1953C32.4793 37.1953 33.1914 37.9217 33.1914 38.7969C33.1914 39.68 32.4729 40.3984 31.5898 40.3984Z" fill="#5A67D8"/>
<path d="M21.5 18.2969C19.7338 18.2969 18.2969 19.7338 18.2969 21.5C18.2969 23.2662 19.7338 24.7031 21.5 24.7031C23.2662 24.7031 24.7031 23.2662 24.7031 21.5C24.7031 19.7338 23.2662 18.2969 21.5 18.2969ZM21.5 23.1016C20.6169 23.1016 19.8984 22.3831 19.8984 21.5C19.8984 20.6169 20.6169 19.8984 21.5 19.8984C22.3831 19.8984 23.1016 20.6169 23.1016 21.5C23.1016 22.3831 22.3831 23.1016 21.5 23.1016Z" stroke="#5A67D8"/>
<path d="M37.7559 26.3046C38.1981 26.3046 38.5566 25.9461 38.5566 25.5038C38.5566 25.0615 38.1981 24.703 37.7559 24.703C37.3136 24.703 36.9551 25.0615 36.9551 25.5038C36.9551 25.9461 37.3136 26.3046 37.7559 26.3046Z" stroke="#5A67D8"/>
<path d="M33.0812 14.8712C34.7535 9.11167 34.3679 5.05484 31.9902 3.68182C31.0729 3.15226 29.4316 2.80264 26.8215 4.14435C25.1694 4.99366 23.3412 6.4128 21.5005 8.26797C18.9623 5.69442 16.5242 4.00365 14.5169 3.42196C14.1677 2.02388 12.9038 1 11.4102 1C9.64395 1 8.20703 2.43692 8.20703 4.20312C8.20703 5.02497 8.52662 5.81109 9.08148 6.39991C8.41587 8.83412 9.07444 12.1864 9.8773 14.8819C4.22194 16.368 1 18.7588 1 21.5C1 24.2412 4.22194 26.632 9.8773 28.1181C9.07444 30.8137 8.41587 34.166 9.08148 36.6001C8.52662 37.189 8.20703 37.975 8.20703 38.7969C8.20703 40.5631 9.64395 42 11.4102 42C12.9039 42 14.1677 40.976 14.5169 39.578C16.5238 38.9963 18.9617 37.3058 21.5 34.7324C24.0383 37.3057 26.4762 38.9963 28.4831 39.578C28.8323 40.976 30.0961 42 31.5898 42C33.356 42 34.793 40.5631 34.793 38.7969C34.793 37.9746 34.4731 37.1883 33.9185 36.5999C34.5841 34.1656 33.9254 30.813 33.1225 28.1175C33.6602 27.9757 34.1815 27.8241 34.6793 27.6643C35.1004 27.5292 35.3321 27.0782 35.1969 26.657C35.0616 26.2359 34.6107 26.0043 34.1896 26.1394C33.6936 26.2988 33.1719 26.4495 32.6326 26.5902C32.0674 24.9418 31.3644 23.2318 30.537 21.4925C31.3545 19.7623 32.0474 18.0546 32.6025 16.4019C37.3636 17.6404 40.3984 19.6101 40.3984 21.5C40.3984 21.9298 40.2408 22.3704 39.9298 22.8096C39.6742 23.1705 39.7597 23.6703 40.1206 23.9258C40.4815 24.1814 40.9813 24.0959 41.2369 23.735C41.7433 23.0199 42 22.268 42 21.5C42 18.7508 38.7628 16.3559 33.0812 14.8712ZM27.5537 5.56878C28.6402 5.01023 30.1527 4.47027 31.1894 5.06885C32.8138 6.0068 32.9296 9.67222 31.5209 14.5005C29.7866 14.1269 27.9328 13.8551 25.9966 13.6874C24.9163 12.1578 23.7772 10.7306 22.6008 9.43271C24.3354 7.67828 26.0377 6.3481 27.5537 5.56878ZM21.5 32.3965C20.6746 31.4797 19.867 30.4951 19.0852 29.4521C19.8845 29.4888 20.6918 29.5078 21.5 29.5078C22.3082 29.5078 23.1156 29.4888 23.9148 29.4521C23.133 30.4952 22.3254 31.4798 21.5 32.3965ZM21.497 10.601C22.3244 11.5197 23.1331 12.5051 23.9148 13.5481C22.3191 13.4752 20.69 13.475 19.0791 13.5487C19.8632 12.5006 20.6719 11.5149 21.497 10.601ZM17.8874 27.7776C17.2035 26.7767 16.5533 25.7443 15.9523 24.7032C15.3429 23.6475 14.7678 22.5716 14.2391 21.5C14.7678 20.4284 15.3429 19.3526 15.9523 18.2969C16.5605 17.2434 17.2095 16.2112 17.8842 15.2226C20.2803 15.0519 22.7526 15.053 25.1127 15.2224C25.7966 16.2233 26.4468 17.2557 27.0479 18.297C27.6543 19.3473 28.2286 20.4215 28.7584 21.495C28.2328 22.5677 27.6586 23.6452 27.0479 24.7033C26.4469 25.7444 25.7967 26.7769 25.1128 27.7778C22.7446 27.9475 20.2565 27.9476 17.8874 27.7776ZM14.5652 17.4962C14.1521 18.2117 13.7546 18.9365 13.3754 19.6631C12.826 18.4324 12.3442 17.2209 11.9344 16.041C13.177 15.7775 14.482 15.5666 15.8376 15.4116C15.3987 16.0932 14.9729 16.79 14.5652 17.4962ZM13.3755 23.3369C13.7546 24.0636 14.1522 24.7883 14.5652 25.5038C14.9698 26.2047 15.3962 26.9016 15.8394 27.5883C14.4832 27.4332 13.1775 27.2224 11.9345 26.9589C12.3442 25.7791 12.826 24.5676 13.3755 23.3369ZM28.4348 25.5038C28.8484 24.7874 29.2456 24.0619 29.6233 23.335C30.1738 24.568 30.656 25.7801 31.0655 26.9589C29.8227 27.2223 28.5171 27.4332 27.1607 27.5883C27.6038 26.9016 28.0303 26.2047 28.4348 25.5038ZM28.4348 17.4962C28.0303 16.7953 27.6039 16.0985 27.1607 15.4117C28.5068 15.5657 29.8024 15.7746 31.0358 16.035C30.6345 17.2147 30.1605 18.4242 29.6182 19.6512C29.2402 18.9269 28.8448 18.2061 28.4348 17.4962ZM20.3968 9.42982C19.224 10.7197 18.0844 12.148 16.9996 13.6873C15.0506 13.8561 13.1841 14.1309 11.4376 14.5091C10.5441 11.5294 10.2265 8.98435 10.526 7.28237C10.8107 7.36405 11.1074 7.40625 11.4102 7.40625C12.8665 7.40625 14.0981 6.4289 14.4857 5.096C16.1533 5.71044 18.2382 7.23536 20.3968 9.42982ZM11.4102 2.60156C12.2951 2.60156 13.0117 3.31746 13.0117 4.20312C13.0117 5.08623 12.2933 5.80469 11.4102 5.80469C10.5232 5.80469 9.80859 5.08046 9.80859 4.20312C9.80859 3.32002 10.5271 2.60156 11.4102 2.60156ZM2.60156 21.5C2.60156 19.6155 5.62459 17.6486 10.3672 16.4096C10.9327 18.059 11.6344 19.7665 12.4592 21.5C11.6344 23.2335 10.9327 24.9412 10.3672 26.5905C5.62459 25.3514 2.60156 23.3845 2.60156 21.5ZM11.4102 40.3984C10.5271 40.3984 9.80859 39.68 9.80859 38.7969C9.80859 37.9204 10.5223 37.1953 11.4102 37.1953C12.3546 37.1953 13.0733 38.0176 13.01 38.8682C13.0096 38.8737 13.0092 38.8794 13.0089 38.885C12.9638 39.7335 12.2615 40.3984 11.4102 40.3984ZM14.4857 37.904C14.0981 36.571 12.8665 35.5938 11.4102 35.5938C11.1074 35.5938 10.8107 35.636 10.526 35.7176C10.2266 34.0157 10.5441 31.4707 11.4376 28.4908C13.1852 28.8691 15.0531 29.144 17.0034 29.3127C18.0855 30.8444 19.2247 32.2716 20.3993 33.5676C18.2395 35.7634 16.1537 37.2893 14.4857 37.904ZM22.6007 33.5676C23.7753 32.2717 24.9145 30.8445 25.9966 29.3127C27.9473 29.144 29.815 28.8691 31.5624 28.4908C32.4559 31.4705 32.7735 34.0156 32.4741 35.7176C32.1893 35.6359 31.8926 35.5938 31.5898 35.5938C30.1335 35.5938 28.9019 36.571 28.5143 37.904C26.8463 37.2892 24.7604 35.7634 22.6007 33.5676ZM31.5898 40.3984C30.7385 40.3984 30.0362 39.7335 29.9912 38.885C29.9909 38.8794 29.9905 38.8737 29.9901 38.8682C29.927 38.0215 30.6403 37.1953 31.5898 37.1953C32.4793 37.1953 33.1914 37.9217 33.1914 38.7969C33.1914 39.68 32.4729 40.3984 31.5898 40.3984Z" stroke="#5A67D8"/>
</svg>
